Coordinates
version=1
nRows=49
nColumns=12
inDegrees=yes

Units are S.I. units (second, meters, Newtons, ...)
Angles are in degrees

endheader
time	SC_y	SC_z	SC_x	AC_y	AC_z	AC_x	GH_y	GH_z	GH_yy	EL_x	PS_y
       0.0              -20.77          11.78          57.82          56.61          5.449         0.8891          142.3          32.19         -5.963          8.962          52.13
   0.01099              -20.77          11.78          57.82           56.6          5.447         0.8899          142.2          32.19         -5.954          8.965          52.15
   0.02197              -20.78          11.78          57.83           56.6          5.444         0.8908          142.2          32.18         -5.945          8.969          52.16
   0.03296              -20.78          11.78          57.83           56.6          5.441         0.8918          142.1          32.18         -5.935          8.972          52.18
   0.04394              -20.78          11.78          57.83           56.6          5.437         0.8928          142.1          32.17         -5.925          8.976           52.2
   0.05493              -20.78          11.78          57.84           56.6          5.434         0.8939          142.1          32.16         -5.913           8.98          52.22
   0.06592              -20.78          11.78          57.84          56.59           5.43          0.895          142.0          32.16         -5.901          8.984          52.24
    0.0769              -20.79          11.78          57.85          56.59          5.426         0.8962          142.0          32.15         -5.888          8.989          52.26
   0.08789              -20.79          11.78          57.85          56.59          5.422         0.8976          141.9          32.14         -5.875          8.993          52.29
   0.09887              -20.79          11.77          57.86          56.59          5.417          0.899          141.8          32.14          -5.86          8.999          52.31
    0.1099              -20.79          11.77          57.87          56.58          5.412         0.9005          141.8          32.13         -5.844          9.004          52.34
    0.1208               -20.8          11.77          57.87          56.58          5.407         0.9022          141.7          32.12         -5.827           9.01          52.37
    0.1318               -20.8          11.77          57.88          56.57          5.401         0.9039          141.6          32.11         -5.809          9.017           52.4
    0.1428               -20.8          11.77          57.89          56.57          5.395         0.9058          141.5           32.1         -5.789          9.024          52.44
    0.1538              -20.81          11.77           57.9          56.57          5.388         0.9079          141.5          32.09         -5.767          9.031          52.48
    0.1648              -20.81          11.77          57.91          56.56          5.381         0.9101          141.4          32.08         -5.744           9.04          52.52
    0.1758              -20.81          11.76          57.92          56.56          5.373         0.9126          141.3          32.06         -5.719          9.049          52.56
    0.1868              -20.82          11.76          57.93          56.55          5.365         0.9152          141.1          32.05         -5.691          9.058          52.61
    0.1977              -20.82          11.76          57.94          56.55          5.355         0.9181          141.0          32.03         -5.661          9.069          52.66
    0.2087              -20.83          11.76          57.96          56.54          5.345         0.9213          140.9          32.01         -5.628          9.081          52.72
    0.2197              -20.83          11.75          57.97          56.53          5.334         0.9248          140.7           32.0         -5.592          9.094          52.79
    0.2307              -20.84          11.75          57.99          56.52          5.321         0.9286          140.6          31.97         -5.552          9.108          52.86
    0.2417              -20.85          11.75          58.01          56.51          5.308         0.9329          140.4          31.95         -5.508          9.123          52.93
    0.2527              -20.86          11.75          58.03           56.5          5.293         0.9376          140.2          31.93         -5.459           9.14          53.02
    0.2637              -20.87          11.74          58.05          56.49          5.276         0.9428          140.0           31.9         -5.405           9.16          53.11
    0.2747              -20.88          11.74          58.07          56.48          5.257         0.9486          139.7          31.87         -5.344          9.181          53.22
    0.2856              -20.89          11.73           58.1          56.47          5.236         0.9551          139.4          31.83         -5.276          9.205          53.34
    0.2966               -20.9          11.73          58.13          56.45          5.212         0.9625          139.1          31.79           -5.2          9.232          53.48
    0.3076              -20.91          11.72          58.17          56.44          5.185         0.9708          138.8          31.75         -5.114          9.262          53.63
    0.3186              -20.93          11.71          58.21          56.42          5.155         0.9802          138.4          31.69         -5.016          9.297           53.8
    0.3296              -20.95           11.7          58.26          56.39           5.12          0.991          137.9          31.64         -4.904          9.336           54.0
    0.3406              -20.97           11.7          58.31          56.37           5.08          1.003          137.4          31.57         -4.776          9.382          54.22
    0.3516              -20.99          11.68          58.37          56.34          5.034          1.018          136.8          31.49         -4.628          9.434          54.48
    0.3625              -21.02          11.67          58.44           56.3          4.981          1.034          136.1           31.4         -4.456          9.495          54.79
    0.3735              -21.05          11.66          58.52          56.26          4.918          1.053          135.3           31.3         -4.255          9.566          55.14
    0.3845              -21.09          11.64          58.62          56.22          4.844          1.076          134.3          31.17         -4.017           9.65          55.56
    0.3955              -21.14          11.62          58.74          56.16          4.756          1.103          133.2          31.03         -3.735          9.749          56.06
    0.4065               -21.2          11.59          58.88          56.09          4.651          1.136          131.8          30.85         -3.397          9.869          56.65
    0.4175              -21.26          11.56          59.05          56.01          4.524          1.175          130.1          30.63         -2.989          10.01          57.37
    0.4285              -21.35          11.53          59.25          55.91          4.369          1.223          128.1          30.37         -2.489          10.19          58.25
    0.4394              -21.45          11.48          59.51          55.79          4.177          1.283          125.5          30.05         -1.873          10.41          59.34
    0.4504              -21.57          11.43          59.82          55.63          3.938          1.357          122.4          29.65         -1.104          10.68          60.69
    0.4614              -21.73          11.36          60.22          55.44          3.637           1.45          118.5          29.14        -0.1355          11.02           62.4
    0.4724              -21.94          11.27          60.73          55.19          3.254          1.568          113.4           28.5          1.095          11.46          64.57
    0.4834               -22.2          11.15          61.38          54.87          2.764           1.72          107.0          27.67          2.671          12.01          67.35
    0.4944              -22.53           11.0          62.21          54.47          2.135          1.914          98.73          26.62          4.693          12.73          70.91
    0.5054              -22.96          10.81          63.28          53.95          1.331          2.163          88.18          25.27          7.276          13.64          75.46
    0.5163              -23.49          10.58          64.62           53.3         0.3213          2.475          74.91          23.57          10.52          14.79          81.19
    0.5273              -24.15          10.29          66.25           52.5        -0.9097          2.856          58.75           21.5          14.48          16.19          88.16
